<svg xmlns="http://www.w3.org/2000/svg" viewBox="0 0 1600 900" preserveAspectRatio="xMidYMid slice">
  <rect width="1600" height="900" fill="#050202"/>
  <g fill="#5c0507" opacity=".72">
    <path d="M59 312C196 205 346 205 482 312c-76 34-152 47-228 41-77 6-148-7-195-41Z"/>
    <path d="M49 327c125 62 271 63 438 0-72 104-145 155-221 153-78 3-150-48-217-153Z"/>
    <path d="M1115 175c156-121 326-121 481 0-86 39-173 53-259 47-88 6-169-9-222-47Z"/>
    <path d="M1103 193c142 70 309 72 500 0-82 119-166 177-253 174-89 3-171-56-247-174Z"/>
    <path d="M239 675c116-90 243-90 359 0-65 29-129 40-193 34-65 6-125-5-166-34Z"/>
    <path d="M230 689c106 52 231 54 374 0-62 89-124 133-190 131-67 2-128-42-184-131Z"/>
    <path d="M882 557c141-110 296-110 438 0-79 35-158 49-237 43-80 6-154-8-201-43Z"/>
    <path d="M871 573c130 64 282 65 456 0-75 108-151 161-231 158-82 3-157-50-225-158Z"/>
  </g>
  <g fill="#120000" opacity=".8">
    <ellipse cx="255" cy="312" rx="97" ry="30"/>
    <ellipse cx="1338" cy="175" rx="110" ry="36"/>
    <ellipse cx="407" cy="675" rx="83" ry="26"/>
    <ellipse cx="1084" cy="557" rx="100" ry="31"/>
  </g>
  <g stroke="#2b0000" stroke-linecap="round" stroke-width="6" opacity=".55">
    <path d="M1190 98c-35 43-54 89-58 137"/>
    <path d="M1276 72c-21 60-29 114-24 163"/>
    <path d="M1398 66c9 63 2 120-19 170"/>
    <path d="M1490 96c-18 55-50 99-96 132"/>
    <path d="M139 247c-27 39-41 80-43 124"/>
    <path d="M242 216c-13 52-17 100-10 145"/>
    <path d="M361 226c8 50 2 94-18 133"/>
    <path d="M946 486c-31 41-48 85-51 132"/>
    <path d="M1076 455c-13 56-16 106-7 151"/>
    <path d="M1201 473c6 52-4 98-30 137"/>
  </g>
</svg>
